<svg width="48" height="48" viewBox="0 0 48 48" fill="none" xmlns="http://www.w3.org/2000/svg">
<g clip-path="url(#clip0_121_2224)">
<path fill-rule="evenodd" clip-rule="evenodd" d="M17.2976 12.0839C17.8286 12.0284 18.3673 12 18.9124 12C26.2034 12 32.3491 17.0846 34.2315 24.0208C34.3822 24.011 34.5338 24.0047 34.6862 24.0018C34.6242 24.0007 34.5622 24.0002 34.5 24.0002L34.4497 24.0003L34.4496 24H36.7499H36.8403V23.9992C39.6981 23.951 41.9999 21.6193 41.9999 18.75C41.9999 15.8505 39.6494 13.5 36.7499 13.5C35.7764 13.5 34.8648 13.765 34.0832 14.2268C34.0809 13.3887 33.9536 12.5799 33.719 11.8183C32.5502 8.4322 29.335 6 25.5518 6C21.6703 6 18.3867 8.56013 17.2976 12.0839ZM40.765 25.9588C43.3292 27.8638 45 30.9796 45 34.5C45 40.299 40.4664 44.9999 34.8739 44.9999C34.7488 44.9999 34.6241 44.9976 34.5 44.9929V45H19.1507V44.9982C19.0714 44.9994 18.992 45 18.9124 45C10.1242 45 3 37.6127 3 28.5C3 21.1415 7.6454 14.908 14.0612 12.7809C14.9504 7.23609 19.7564 3 25.5518 3C30.524 3 34.768 6.11826 36.4348 10.5059C36.5394 10.502 36.6444 10.5 36.7499 10.5C41.3063 10.5 44.9999 14.1937 44.9999 18.75C44.9999 21.8488 43.2914 24.5486 40.765 25.9588ZM34.5 42H19.1507H18.978V41.9998L18.9124 42C11.8827 42 6 36.0593 6 28.5C6 20.9407 11.8827 15 18.9124 15C24.8758 15 30.0137 19.2751 31.4353 25.1867L31.4398 25.1849C31.6406 26.0051 31.7686 26.8555 31.8162 27.7282C32.7509 27.2598 33.7908 27 34.8739 27C38.708 27 42 30.2544 42 34.5C42 38.7158 38.7539 41.9543 34.9544 41.9995V42H34.5Z" fill="white"/>
</g>
<defs>
<clipPath id="clip0_121_2224">
<rect width="48" height="48" fill="white"/>
</clipPath>
</defs>
</svg>
